# xmcd
#
# Track frame offsets:
#	150
#	22917
#	34725
#	50254
#	64844
#	81253
#	102915
#	116967
#	128680
#	152375
#
# Disc length: 2224 seconds
#
# Revision: 1
# Processed by: cddbd v1.5.1PL0 Copyright (c) Steve Scherf et al.
# Submitted via: audiograbber 1.83.01
#
DISCID=7708ae0a
DTITLE=Dara Mc Namara - Endeavour
DYEAR=1999
DGENRE=Blues
TTITLE0=Copperhead Road (Steve Earl)
TTITLE1=Light my fire (The Doors)
TTITLE2=San Francisco Bay Blues (Jessie Fuller)
TTITLE3=The one I love (REM)
TTITLE4=Tears in heaven (Eric Clapton)
TTITLE5=It's probably me (Sting/Clapton)
TTITLE6=In love again (Lonnie Johnson)
TTITLE7=Nobody knows you (Jimmy Cox)
TTITLE8=China (Tori Amos)
TTITLE9=August (Dara Mc Namara)
EXTD=
EXTT0=
EXTT1=
EXTT2=
EXTT3=
EXTT4=
EXTT5=
EXTT6=
EXTT7=
EXTT8=
EXTT9=
PLAYORDER=
